<svg width="210" height="87" viewBox="0 0 210 87" fill="none" xmlns="http://www.w3.org/2000/svg">
<path d="M2.4883 65.2548C6.70639 97.1494 5.926 23.0408 26.2886 48.0648C30.9393 53.7801 36.7918 62.476 44.1031 64.1711C54.8925 66.6726 84.4666 46.9577 71.4825 35.5396C63.0913 28.1605 50.3376 30.2435 48.2417 42.1531C44.8046 61.6839 63.1162 76.4163 78.1073 81.7486C94.6118 87.619 111.233 81.2853 120.01 65.2547C124.02 57.9314 120.554 46.5759 111.05 53.3298C91.5008 67.2214 118.659 80.9966 132.385 78.3303C157.107 73.5277 186.666 41.2609 178.195 12.7354C175.547 3.81672 172.226 6.92464 169.948 10.8235C167.637 14.7796 158.709 24.8709 162.22 22.1103C168.357 17.2843 170.386 11.4268 173.568 4.84119C177.672 -3.65301 190.663 13.5631 195.166 18.5165C197.53 21.1168 202.586 24.8203 206.029 25.3946C212.827 26.5286 194.319 16.9353 187.592 15.3757" stroke="black" stroke-width="5" stroke-linecap="round" stroke-linejoin="round"/>
</svg>
