<svg width="163" height="164" viewBox="0 0 163 164" fill="none" xmlns="http://www.w3.org/2000/svg">
<path d="M2.00839 2.00839C15.565 2.00848 15.565 47.8053 46.6912 24.2102C54.1974 27.6619 58.3064 40.4324 56.5518 47.8059C55.0963 53.9221 55.4796 62.0265 48.4392 64.7865C42.9093 66.9543 36.6473 65.4424 33.494 60.0848C24.5391 44.8704 46.8757 39.0985 56.815 42.8902C70.3813 48.0657 80.6749 85.8262 66.5578 94.7848C54.4539 102.466 50.0385 86.7509 58.8356 79.3801C71.2106 69.0116 80.7534 70.2461 90.5177 85.2653C98.1417 96.9924 92.2739 114.389 83.1193 122.504C81.218 124.189 73.0149 136.859 71.8324 135.246C60.164 119.332 88.3347 103.636 101.613 108.821C116.869 114.778 132.237 120.979 140.55 135.28C145.021 142.97 151.28 168.821 150.746 159.942C150.076 148.83 150.187 133.757 156.435 123.871C158.294 120.929 164.003 111.392 158.962 120.734C153.771 130.357 148.974 138.711 145.839 148.611C145.142 150.814 147.527 154.516 148.201 156.6C148.772 158.366 142.531 155.156 141.757 154.94C135.072 153.07 128.403 154.628 122.016 156.89C116.314 158.909 109.424 163.348 105.831 160.737" stroke="black" stroke-width="4" stroke-linecap="round" stroke-linejoin="round"/>
</svg>
