<svg width="182" height="153" viewBox="0 0 182 153" fill="none" xmlns="http://www.w3.org/2000/svg">
<path d="M164.941 2.54655C190.046 20.6222 180.35 45.167 150.365 33.0894C143.517 30.331 134.17 25.5411 126.937 27.5976C116.263 30.6325 82.5957 53.2592 113.726 67.3182C126.937 69.5481 137.911 60.3727 133.978 48.9126C127.527 30.1188 104.329 26.0727 88.5978 28.6613C71.2789 31.5112 48.8832 45.9935 48.9545 64.3055C48.987 72.671 68.4179 80.0771 73.48 69.5481C83.892 47.8919 53.3994 48.9724 42.6545 57.9622C23.301 74.1545 4.85656 122.25 26.1087 143.162C32.7533 149.7 34.1595 145.365 34.2675 140.842C34.377 136.253 45.4753 117.602 43.7344 121.724C42.4262 135.368 33.8666 139.836 34.2674 147.154C34.7844 156.592 22.9322 143.004 16.5828 140.842C13.2497 139.707 7.02078 138.909 3.72315 140.074C-2.78845 142.374 18.092 141.818 24.7471 139.926" stroke="black" stroke-width="5" stroke-linecap="round" stroke-linejoin="round"/>
</svg>
